<?xml version="1.0" encoding="UTF-8" standalone="no"?>
<!-- Generated by Visual Integrity Suite v7.0.7.0 -->

<svg
   xmlns:dc="http://purl.org/dc/elements/1.1/"
   xmlns:cc="http://creativecommons.org/ns#"
   xmlns:rdf="http://www.w3.org/1999/02/22-rdf-syntax-ns#"
   xmlns:svg="http://www.w3.org/2000/svg"
   xmlns="http://www.w3.org/2000/svg"
   xmlns:sodipodi="http://sodipodi.sourceforge.net/DTD/sodipodi-0.dtd"
   xmlns:inkscape="http://www.inkscape.org/namespaces/inkscape"
   xml:space="preserve"
   width="409.9993"
   height="325.81763"
   viewBox="0 0 327.98701 260.65238"
   id="svg2"
   version="1.1"
   inkscape:version="0.47 r22583"
   sodipodi:docname="ER.svg"><title
   id="title4819">ERTZAINTZA</title><metadata
   id="metadata543"><rdf:RDF><cc:Work
       rdf:about=""><dc:format>image/svg+xml</dc:format><dc:type
         rdf:resource="http://purl.org/dc/dcmitype/StillImage" /><dc:title>ERTZAINTZA</dc:title><dc:date>2010-01-11</dc:date><dc:creator><cc:Agent><dc:title>EBNZ</dc:title></cc:Agent></dc:creator><cc:license
         rdf:resource="http://creativecommons.org/licenses/publicdomain/" /></cc:Work><cc:License
       rdf:about="http://creativecommons.org/licenses/publicdomain/"><cc:permits
         rdf:resource="http://creativecommons.org/ns#Reproduction" /><cc:permits
         rdf:resource="http://creativecommons.org/ns#Distribution" /><cc:permits
         rdf:resource="http://creativecommons.org/ns#DerivativeWorks" /></cc:License></rdf:RDF></metadata><defs
   id="defs541"><inkscape:perspective
   sodipodi:type="inkscape:persp3d"
   inkscape:vp_x="0 : 499.87204 : 1"
   inkscape:vp_y="0 : 1000 : 0"
   inkscape:vp_z="612.67322 : 499.87204 : 1"
   inkscape:persp3d-origin="306.33661 : 333.24803 : 1"
   id="perspective545" /> <clipPath
   id="ClipId2">
<path
   id="path203"
   d="m -45.72,-6.84 594.9,0 0,841.86 -594.9,0 z" />
</clipPath>


























































































































































 <clipPath
   id="ClipId0">
<path
   id="path7"
   d="m -45.72,-6.84 594.9,0 0,841.86 -594.9,0 z" />
</clipPath>



























































































</defs><sodipodi:namedview
   pagecolor="#ffffff"
   bordercolor="#666666"
   borderopacity="1"
   objecttolerance="10"
   gridtolerance="10"
   guidetolerance="10"
   inkscape:pageopacity="0"
   inkscape:pageshadow="2"
   inkscape:window-width="1280"
   inkscape:window-height="753"
   id="namedview539"
   showgrid="false"
   inkscape:zoom="1.6907"
   inkscape:cx="-18.933552"
   inkscape:cy="190.84717"
   inkscape:window-x="-4"
   inkscape:window-y="-4"
   inkscape:window-maximized="1"
   inkscape:current-layer="svg2" />






<g
   id="g3693"
   transform="translate(14.961645,11.796197)"><path
     style="fill:#fefefe;fill-rule:nonzero;stroke:none;fill-opacity:1"
     d="m 208.79233,52.02 c -3.78,-29.34 -29.16,-52.02 -59.94,-52.02 -30.78,0 -55.980004,22.68 -59.760004,52.2 l -84.2400002,0 c -3.24,11.88 -4.86000004,24.48 -4.86000004,37.44 0,81.36 66.78000024,147.42 149.04000424,147.42 82.26,0 149.04,-66.06 149.04,-147.42 0,-12.96 -1.8,-25.56 -5.04,-37.62 l -84.24,0 z"
     id="path35" /><path
     id="polygon37"
     transform="matrix(0.79999473,0,0,0.79999473,-0.00466681,0)"
     d="m 313.4375,170.3125 -10.375,19.375 7.21875,3.59375 2.25,-3.59375 c 0,0 8.76872,7.84997 12.59375,12.125 1.35001,1.35001 1.1125,2.92499 0.4375,4.5 l 7.4375,3.84375 6.96875,-13.28125 -7.40625,-3.8125 c 0,0 -0.22499,1.34375 -2.25,1.34375 -0.225,0 -1.36875,-0.4625 -1.59375,-0.6875 l 1.125,-2.25 2.03125,-3.59375 2.9375,0.90625 -0.90625,2.03125 7.65625,4.03125 8.53125,-16.40625 -7.40625,-3.84375 c -0.675,0.675 -0.90624,1.5875 -2.03125,1.8125 -9.00006,-1.80001 -27.21875,-6.09375 -27.21875,-6.09375 z m -255.40625,1.8125 -6.75,4.5 1.59375,2.46875 -16.21875,10.59375 -1.5625,-2.25 -6.96875,4.5 14.40625,22.9375 12.125,-7.65625 L 51.75,202.5 45,204.0625 l -2.25,-3.59375 4.9375,-3.15625 2.46875,3.84375 7,-4.0625 -2.25,-4.03125 4.9375,-2.9375 2.25,3.59375 -4.5,5.1875 2.9375,4.71875 12.375,-7.1875 -14.875,-24.3125 z m 260.125,12.15625 6.53125,1.34375 -1.375,2.9375 -5.15625,-4.28125 z m -17.09375,7.65625 -20.5,22.71875 11.03125,10.34375 4.0625,-4.5 -3.59375,-6.0625 4.25,-4.5 4.75,23.625 5.84375,5.375 21.375,-23.15625 -12.59375,-11.03125 -4.0625,4.9375 4.0625,6.75 -4.28125,4.5 -4.5,-24.0625 -5.84375,-4.9375 z m -226.59375,5.84375 -5.625,5.84375 2.25,2.6875 -13.5,14.1875 -2.6875,-2.6875 -4.96875,5.84375 12.59375,12.375 5.1875,-5.40625 -1.5625,-1.8125 5.15625,-5.625 -3.375,18.25 8.09375,8.09375 5.625,-5.84375 -1.78125,-1.59375 1.5625,-10.125 c 3.600024,0.90001 7.424982,0.22502 10.125,-2.25 1.800012,-1.35001 2.699996,-3.13124 3.375,-5.15625 0.675004,-3.37502 -0.231238,-6.52498 -2.03125,-9 l -18.4375,-17.78125 z m 5.1875,17.09375 c 1.350009,0.675 2.006244,1.81249 2.90625,2.9375 0.675004,1.57501 0.243756,2.46249 -0.65625,3.8125 -1.350009,1.12501 -2.718743,1.58125 -3.84375,0.90625 -1.57501,-0.225 -2.699996,-1.575 -3.375,-2.25 l 4.96875,-5.40625 z m 199.125,1.5625 -26.78125,18.25 9,12.8125 4.71875,-3.59375 -2.46875,-6.53125 1.8125,-1.125 10.78125,15.53125 -2.46875,2.03125 4.9375,6.96875 15.75,-11.03125 -4.9375,-7.4375 -2.9375,2.03125 -11,-15.28125 2,-1.375 5.1875,4.28125 4.71875,-3.375 -8.3125,-12.15625 z m -180.21875,5.40625 -7.21875,13.0625 5.1875,2.90625 4.28125,-4.5 1.78125,0.90625 -9.6875,16.21875 -3.125,-1.59375 -4.0625,7.4375 17.09375,9.65625 4.28125,-7.40625 -2.6875,-1.34375 9.4375,-16.4375 1.8125,1.125 -1.34375,6.3125 4.9375,2.6875 7.1875,-12.8125 -27.875,-16.21875 z m 150.75,14.625 -13.5,4.71875 2.6875,8.125 c 1.57501,-0.45 2.69374,-0.47501 3.59375,0.875 l 2.46875,9.46875 -16.625,-15.96875 -15.53125,4.9375 2.46875,8.09375 3.59375,-0.90625 4.96875,16.4375 c 0.225,1.35001 -1.37499,2.6875 -2.5,2.6875 l 2.9375,8.125 13.71875,-4.28125 -2.90625,-8.34375 c -1.35001,0.225 -2.94374,0.25001 -3.84375,-0.875 l -2.25,-7.21875 15.09375,13.96875 13.5,-3.84375 -7.65625,-24.75 c 0,-1.35001 1.79375,-2.0125 2.46875,-2.6875 l -2.6875,-8.5625 z m -120.625,2.9375 -4.25,14.15625 5.625,1.59375 3.8125,-5.625 5.84375,2.03125 -19.5625,13.71875 -2.25,7.65625 29.90625,9.65625 4.75,-15.75 -6.3125,-2.03125 -4.28125,6.75 -5.84375,-2 20.03125,-13.96875 2.25,-7.1875 -29.71875,-9 z m 32.1875,9.65625 -0.4375,7.875 4.25,0.6875 c 0,0 -3.36873,11.01247 -5.84375,16.1875 -0.675,2.02501 -2.23749,2.5 -3.8125,2.5 l -0.46875,8.09375 15.09375,0.90625 0.4375,-8.34375 c 0,0 -1.34999,0.45626 -2.25,-1.34375 0,-0.45 -0.225,-1.5875 0,-1.8125 0,0 1.11874,0.025 2.46875,0.25 l 4.28125,0.21875 0.21875,3.15625 -2.25,-0.25 -0.4375,8.5625 18.4375,1.125 0.6875,-8.3125 c -0.90001,-0.45 -1.79375,-0.22499 -2.46875,-1.125 -2.02501,-9.00006 -5.84375,-27 -5.84375,-27 l -22.0625,-1.375 z m 49.5,0 -19.8125,2.03125 0.90625,8.34375 3.15625,0 1.5625,18.21875 -3.125,0.65625 0.875,8.78125 20.03125,-2.03125 -0.90625,-8.75 -3.375,0.21875 -1.78125,-18.6875 3.15625,-0.65625 -0.6875,-8.125 z m -38.25,11.25 1.5625,6.53125 -3.375,0 1.8125,-6.53125 z"
     style="fill:#000000;fill-rule:nonzero;stroke:none" /><polygon
     transform="translate(-87.667674,-184.14)"
     style="fill:#000000;fill-rule:nonzero;stroke:none"
     points="103.32,345.42 103.32,344.88 103.32,344.88 103.68,344.88 "
     id="polygon51" /><path
     style="fill:#bc2034;fill-rule:nonzero;stroke:none"
     d="m 96.112326,59.94 c 0,-28.8 23.580004,-52.2 52.740004,-52.2 29.16,0 52.74,23.4 52.74,52.2 0,28.8 -23.58,52.02 -52.74,52.02 -29.16,0 -52.740004,-23.22 -52.740004,-52.02 l 0,0 z"
     id="path59" /><path
     style="fill:none;stroke:#000000;stroke-width:1.25999999;stroke-linecap:butt;stroke-linejoin:miter"
     d="m 96.112326,59.94 c 0,-28.8 23.580004,-52.2 52.740004,-52.2 29.16,0 52.74,23.4 52.74,52.2 0,28.8 -23.58,52.02 -52.74,52.02 -29.16,0 -52.740004,-23.22 -52.740004,-52.02 l 0,0"
     id="path61" /><path
     id="path63"
     transform="matrix(0.79999473,0,0,0.79999473,-0.00466681,0)"
     d="m 58.28125,74.9375 c -3.375022,11.475076 -5.1875,23.624918 -5.1875,36 0,15.0751 2.68747,29.47491 7.1875,42.75 L 121.9375,113.84375 C 114.96245,102.59368 110.46875,89.112593 110.46875,74.9375 l -52.1875,0 z m 202.9375,0 c 0,14.175093 -4.0562,27.43117 -11.03125,38.90625 l 62.125,40.0625 -0.25,-0.21875 c 4.72503,-13.50009 7.21875,-27.8999 7.21875,-42.75 0,-12.375082 -1.81248,-24.524924 -5.1875,-36 l -52.875,0 z M 123.96875,117 61.65625,157.0625 c 9.000059,24.30016 25.206114,44.9874 45.90625,60.0625 l 0,0.21875 41.625,-77.625 C 139.28743,134.31871 130.4938,126.22506 123.96875,117 z m 124.21875,0 c -6.52504,9.22506 -14.87493,17.09996 -25,22.5 l -0.21875,0.4375 41.625,77.1875 c 20.70014,-15.0751 37.12494,-35.76234 46.125,-60.0625 L 248.1875,117 z m -28.125,24.3125 c -9.67506,4.95003 -20.71242,7.65 -32.1875,7.875 l 0,93.125 0,0.25 c 27.45018,-0.225 52.88736,-8.78741 73.8125,-23.1875 l -41.625,-78.0625 z m -67.5,0.21875 -0.46875,0.21875 -41.625,77.84375 c 20.92514,14.17509 46.36232,22.74375 73.8125,22.96875 l 0,-93.15625 c -11.47508,-0.45 -22.26869,-3.14997 -31.71875,-7.875 z"
     style="fill:#1c468f;fill-rule:nonzero;stroke:none" /><g
     id="g3600"><path
       id="path77"
       d="m 122.93233,66.06 0,13.32 c -0.36,-0.54 -0.9,-0.54 -1.44,-0.72 0,-1.62 -1.08,-1.44 -1.08,-1.44 0.36,-1.98 -1.08,-3.78 -1.08,-3.78 0.9,-1.98 -0.54,-2.34 -0.54,-2.34 -0.18,-0.72 -0.18,-0.9 0.18,-1.08 -0.36,-0.72 0.36,-1.08 0.72,-1.08 -0.36,-0.9 1.44,-1.26 1.62,-0.9 1.62,-0.36 1.62,-1.98 1.62,-1.98 z"
       style="fill:#009b69;fill-rule:evenodd;stroke:none" /><path
       id="path79"
       d="m 122.93233,66.06 0,13.32 c -0.36,-0.54 -0.9,-0.54 -1.44,-0.72 0,-1.62 -1.08,-1.44 -1.08,-1.44 0.36,-1.98 -1.08,-3.78 -1.08,-3.78 0.9,-1.98 -0.54,-2.34 -0.54,-2.34 -0.18,-0.72 -0.18,-0.9 0.18,-1.08 -0.36,-0.72 0.36,-1.08 0.72,-1.08 -0.36,-0.9 1.44,-1.26 1.62,-0.9 1.62,-0.36 1.62,-1.98 1.62,-1.98 l 0,0"
       style="fill:none;stroke:#000000;stroke-width:0.36000001;stroke-linecap:butt;stroke-linejoin:miter" /><path
       id="path81"
       d="m 122.93233,78.12 0,5.76 c -3.06,0.9 -3.78,-1.26 -3.78,-1.26 -1.8,-0.18 -1.62,-1.62 -1.62,-1.62 -0.9,-0.54 -0.36,-1.8 -0.36,-1.8 -1.08,-1.08 0.54,-2.16 0.54,-2.16 -0.18,-0.72 -0.54,-0.54 -0.54,-0.54 0.18,-0.18 0,-0.72 0,-0.72 l 1.08,0.72 c 0.54,0.36 0.36,0 0.36,0 0.18,-1.26 -0.36,-1.8 -0.9,-2.16 -1.08,0.72 -1.62,-0.18 -1.62,-0.18 -2.16,0.72 -2.52,-1.62 -2.52,-1.62 -2.34,0.18 -1.98,-2.16 -1.98,-2.16 -1.62,-0.36 -1.8,-1.8 -0.54,-1.98 0,-1.62 1.98,-0.72 2.16,0 1.8,-1.44 2.16,0.9 2.16,0.9 1.44,-0.36 2.88,1.26 2.7,2.16 1.44,0.72 0.54,2.16 0.54,2.16 1.44,1.8 0.72,3.24 0.72,3.24 1.98,0 2.16,1.26 2.16,1.26 0.72,-0.72 1.44,0 1.44,0 z"
       style="fill:#009b69;fill-rule:nonzero;stroke:none" /><path
       id="path83"
       d="m 122.93233,78.12 0,5.76 c -3.06,0.9 -3.78,-1.26 -3.78,-1.26 -1.8,-0.18 -1.62,-1.62 -1.62,-1.62 -0.9,-0.54 -0.36,-1.8 -0.36,-1.8 -1.08,-1.08 0.54,-2.16 0.54,-2.16 -0.18,-0.72 -0.54,-0.54 -0.54,-0.54 0.18,-0.18 0,-0.72 0,-0.72 l 1.08,0.72 c 0.54,0.36 0.36,0 0.36,0 0.18,-1.26 -0.36,-1.8 -0.9,-2.16 -1.08,0.72 -1.62,-0.18 -1.62,-0.18 -2.16,0.72 -2.52,-1.62 -2.52,-1.62 -2.34,0.18 -1.98,-2.16 -1.98,-2.16 -1.62,-0.36 -1.8,-1.8 -0.54,-1.98 0,-1.62 1.98,-0.72 2.16,0 1.8,-1.44 2.16,0.9 2.16,0.9 1.44,-0.36 2.88,1.26 2.7,2.16 1.44,0.72 0.54,2.16 0.54,2.16 1.44,1.8 0.72,3.24 0.72,3.24 1.98,0 2.16,1.26 2.16,1.26 0.72,-0.72 1.44,0 1.44,0 l 0,0"
       style="fill:none;stroke:#000000;stroke-width:0.36000001;stroke-linecap:butt;stroke-linejoin:miter" /><path
       id="path85"
       d="m 142.37233,30.96 c 1.8,-0.9 1.08,-2.16 1.08,-2.16 1.98,-0.36 1.26,-2.52 1.26,-2.52 1.62,-1.44 0,-2.88 -1.62,-1.62 -1.62,-1.44 -2.7,1.26 -2.7,1.26 -1.98,-0.9 -2.16,2.16 -2.16,2.16 l -1.08,-0.18 c -2.16,0.54 -0.54,1.62 -0.54,1.62 -0.72,0.9 0.18,1.44 0.18,1.44 l 5.58,0 z"
       style="fill:#009b69;fill-rule:nonzero;stroke:none" /><path
       id="path87"
       d="m 142.37233,30.96 c 1.8,-0.9 1.08,-2.16 1.08,-2.16 1.98,-0.36 1.26,-2.52 1.26,-2.52 1.62,-1.44 0,-2.88 -1.62,-1.62 -1.62,-1.44 -2.7,1.26 -2.7,1.26 -1.98,-0.9 -2.16,2.16 -2.16,2.16 l -1.08,-0.18 c -2.16,0.54 -0.54,1.62 -0.54,1.62 -0.72,0.9 0.18,1.44 0.18,1.44 l 5.58,0 0,0"
       style="fill:none;stroke:#000000;stroke-width:0.36000001;stroke-linecap:butt;stroke-linejoin:miter" /><path
       id="path89"
       d="m 134.63233,30.96 0.18,-0.72 c 0.54,-2.7 -2.52,-2.34 -2.52,-2.34 l -1.26,0.36 c -1.8,-1.8 -3.24,0.36 -3.24,0.36 -1.98,-1.26 -3.06,1.44 -3.24,2.34 0.18,0 10.08,0 10.08,0 z"
       style="fill:#009b69;fill-rule:nonzero;stroke:none" /><path
       id="path91"
       d="m 134.63233,30.96 0.18,-0.72 c 0.54,-2.7 -2.52,-2.34 -2.52,-2.34 l -1.26,0.36 c -1.8,-1.8 -3.24,0.36 -3.24,0.36 -1.98,-1.26 -3.06,1.44 -3.24,2.34 0.18,0 10.08,0 10.08,0 l 0,0"
       style="fill:none;stroke:#000000;stroke-width:0.36000001;stroke-linecap:butt;stroke-linejoin:miter" /><polygon
       id="polygon93"
       points="223.02,214.02 223.02,214.02 223.02,214.02 223.2,215.1 223.74,215.1 223.56,213.84 "
       style="fill:#009b69;fill-rule:nonzero;stroke:none"
       transform="translate(-87.667674,-184.14)" /><polyline
       id="polyline95"
       points="223.02,214.02 223.20,215.10 223.74,215.10 223.56,213.84   223.02,214.02 223.02,214.02 "
       style="fill:none;stroke:#000000;stroke-width:0.36000001;stroke-linecap:butt;stroke-linejoin:miter"
       transform="translate(-87.667674,-184.14)" /><path
       id="path97"
       d="m 135.89233,29.88 -0.36,0 c -0.9,0.18 -1.8,-1.62 -1.8,-1.62 l 0.54,0 -0.18,-0.72 c -0.54,-1.8 0.72,-1.8 0.72,-1.8 1.08,-0.36 1.44,1.26 1.44,1.26 l 0.18,0.72 0.54,-0.18 c 0.18,1.98 -1.08,2.34 -1.08,2.34 l 0,0 z"
       style="fill:#cabd53;fill-rule:nonzero;stroke:none" /><path
       id="path99"
       d="m 135.89233,29.88 -0.36,0 c -0.9,0.18 -1.8,-1.62 -1.8,-1.62 l 0.54,0 -0.18,-0.72 c -0.54,-1.8 0.72,-1.8 0.72,-1.8 1.08,-0.36 1.44,1.26 1.44,1.26 l 0.18,0.72 0.54,-0.18 c 0.18,1.98 -1.08,2.34 -1.08,2.34 l 0,0"
       style="fill:none;stroke:#000000;stroke-width:0.36000001;stroke-linecap:butt;stroke-linejoin:miter" /><path
       id="path101"
       d="m 120.77233,42.66 0,0 c 0,0 0,-0.18 0,-0.36 0.54,-2.52 -1.62,-1.98 -1.62,-1.98 0.18,-0.72 -0.54,-1.26 -0.54,-1.26 0,-1.8 -1.44,-2.16 -1.44,-2.16 -1.62,0.36 -1.26,1.26 -0.9,1.8 -1.8,0.18 -0.54,2.34 -0.54,2.34 -0.9,1.44 0.36,2.52 0.36,2.52 -0.72,1.98 0.72,2.7 0.72,2.7 -0.54,2.34 2.16,2.88 2.16,2.88 -0.18,2.7 -0.72,2.7 -0.72,2.7 -0.18,-0.72 -0.9,-0.9 -1.08,-1.44 0.36,-0.54 0,-1.26 0,-1.26 -1.44,-0.72 -1.08,-2.7 -1.08,-2.7 -1.26,-0.54 -1.08,-2.52 -0.72,-2.88 -0.54,-1.08 -1.26,-0.9 -1.44,-0.18 -2.34,-1.62 -1.8,1.08 -1.44,1.44 -1.08,1.98 0.36,2.52 0.36,2.52 -0.54,1.44 1.08,1.98 1.08,1.98 0,0 -0.36,1.08 1.08,1.08 0.18,0.54 0.36,1.08 1.8,0.54 0.9,0.72 0.9,1.98 0.9,1.98 0,2.16 -0.18,2.52 -0.18,2.52 l -1.08,-1.26 c -0.54,0.18 -0.72,0.54 -0.72,0.54 0.54,0.54 1.08,1.08 1.08,1.08 0.72,1.98 0.36,4.86 0.36,4.86 -0.18,2.7 1.08,2.52 1.08,2.52 -0.72,0.9 0.54,1.62 0.54,1.62 0.18,0.36 1.08,1.08 1.08,1.08 0.18,0.9 -1.08,1.08 -1.26,1.08 -0.36,-1.08 -0.18,-1.98 -1.8,-3.06 0.9,-1.26 -0.54,-1.98 -0.54,-1.98 0,0 1.26,-1.62 0.18,-2.7 -0.54,-0.54 0,-0.9 0,-0.9 0,0 0.18,-2.34 -1.98,-2.52 0,-1.44 -1.44,-1.62 -1.44,-1.62 -0.72,-1.8 -1.8,-1.08 -1.98,-0.54 -1.8,-0.54 -1.98,1.44 -1.26,1.8 -1.44,1.98 0.72,3.42 0.72,3.42 -1.26,1.26 0.9,2.52 0.9,2.52 -0.54,0.9 0.18,1.8 1.98,1.98 0.72,1.44 2.88,0.9 2.88,0.9 2.34,1.98 1.08,3.24 1.08,3.24 l -1.08,-0.72 c -0.18,0.18 -0.18,0.54 -0.18,0.54 1.44,1.08 1.26,1.98 1.26,1.98 0,-0.18 -0.36,0.18 -0.36,0.36 0.54,0.18 0.72,0.72 0.72,0.72 0.9,-3.42 1.8,-2.34 2.52,-3.6 0.9,0 2.16,-0.36 2.16,-1.44 0.18,-0.36 0.54,-0.18 0.54,-0.18 l 0,-9.18 c -2.52,0 -2.52,1.8 -2.52,1.8 -1.44,0 -1.26,1.08 -1.26,1.08 -1.62,0 -1.26,1.98 -1.26,1.98 -0.36,-0.72 0,-3.06 0,-3.06 1.26,0.18 1.62,-1.08 1.62,-1.08 1.62,-0.36 1.98,-2.16 1.98,-2.16 0.9,0.36 1.44,-0.36 1.44,-0.36 l 0,-21.06 c -3.06,0.18 -2.88,2.7 -2.88,2.7 -1.26,0.72 -1.44,1.44 -1.44,1.44 0.54,0.18 0.72,0.54 0.9,1.44 0.36,0.36 0.54,0.9 0.54,0.9 2.52,0.9 0.72,3.06 0.72,3.06 l 0,0 z m 0.54,3.6 1.08,1.26 c -2.34,1.26 -2.52,4.32 -2.52,4.32 -1.08,0.54 -0.72,0.18 -0.72,0.18 0.72,-1.26 0.36,-3.06 0.36,-3.06 1.62,-0.54 1.98,-1.8 1.8,-2.7 z"
       style="fill:#009b69;fill-rule:evenodd;stroke:none" /><path
       id="path103"
       d="m 120.77233,42.66 0,0 c 0,0 0,-0.18 0,-0.36 0.54,-2.52 -1.62,-1.98 -1.62,-1.98 0.18,-0.72 -0.54,-1.26 -0.54,-1.26 0,-1.8 -1.44,-2.16 -1.44,-2.16 -1.62,0.36 -1.26,1.26 -0.9,1.8 -1.8,0.18 -0.54,2.34 -0.54,2.34 -0.9,1.44 0.36,2.52 0.36,2.52 -0.72,1.98 0.72,2.7 0.72,2.7 -0.54,2.34 2.16,2.88 2.16,2.88 -0.18,2.7 -0.72,2.7 -0.72,2.7 -0.18,-0.72 -0.9,-0.9 -1.08,-1.44 0.36,-0.54 0,-1.26 0,-1.26 -1.44,-0.72 -1.08,-2.7 -1.08,-2.7 -1.26,-0.54 -1.08,-2.52 -0.72,-2.88 -0.54,-1.08 -1.26,-0.9 -1.44,-0.18 -2.34,-1.62 -1.8,1.08 -1.44,1.44 -1.08,1.98 0.36,2.52 0.36,2.52 -0.54,1.44 1.08,1.98 1.08,1.98 0,0 -0.36,1.08 1.08,1.08 0.18,0.54 0.36,1.08 1.8,0.54 0.9,0.72 0.9,1.98 0.9,1.98 0,2.16 -0.18,2.52 -0.18,2.52 l -1.08,-1.26 c -0.54,0.18 -0.72,0.54 -0.72,0.54 0.54,0.54 1.08,1.08 1.08,1.08 0.72,1.98 0.36,4.86 0.36,4.86 -0.18,2.7 1.08,2.52 1.08,2.52 -0.72,0.9 0.54,1.62 0.54,1.62 0.18,0.36 1.08,1.08 1.08,1.08 0.18,0.9 -1.08,1.08 -1.26,1.08 -0.36,-1.08 -0.18,-1.98 -1.8,-3.06 0.9,-1.26 -0.54,-1.98 -0.54,-1.98 0,0 1.26,-1.62 0.18,-2.7 -0.54,-0.54 0,-0.9 0,-0.9 0,0 0.18,-2.34 -1.98,-2.52 0,-1.44 -1.44,-1.62 -1.44,-1.62 -0.72,-1.8 -1.8,-1.08 -1.98,-0.54 -1.8,-0.54 -1.98,1.44 -1.26,1.8 -1.44,1.98 0.72,3.42 0.72,3.42 -1.26,1.26 0.9,2.52 0.9,2.52 -0.54,0.9 0.18,1.8 1.98,1.98 0.72,1.44 2.88,0.9 2.88,0.9 2.34,1.98 1.08,3.24 1.08,3.24 l -1.08,-0.72 c -0.18,0.18 -0.18,0.54 -0.18,0.54 1.44,1.08 1.26,1.98 1.26,1.98 0,-0.18 -0.36,0.18 -0.36,0.36 0.54,0.18 0.72,0.72 0.72,0.72 0.9,-3.42 1.8,-2.34 2.52,-3.6 0.9,0 2.16,-0.36 2.16,-1.44 0.18,-0.36 0.54,-0.18 0.54,-0.18 l 0,-9.18 c -2.52,0 -2.52,1.8 -2.52,1.8 -1.44,0 -1.26,1.08 -1.26,1.08 -1.62,0 -1.26,1.98 -1.26,1.98 -0.36,-0.72 0,-3.06 0,-3.06 1.26,0.18 1.62,-1.08 1.62,-1.08 1.62,-0.36 1.98,-2.16 1.98,-2.16 0.9,0.36 1.44,-0.36 1.44,-0.36 l 0,-21.06 c -3.06,0.18 -2.88,2.7 -2.88,2.7 -1.26,0.72 -1.44,1.44 -1.44,1.44 0.54,0.18 0.72,0.54 0.9,1.44 0.36,0.36 0.54,0.9 0.54,0.9 2.52,0.9 0.72,3.06 0.72,3.06 l 0,0 m 0.54,3.6 1.08,1.26 c -2.34,1.26 -2.52,4.32 -2.52,4.32 -1.08,0.54 -0.72,0.18 -0.72,0.18 0.72,-1.26 0.36,-3.06 0.36,-3.06 1.62,-0.54 1.98,-1.8 1.8,-2.7 l 0,0"
       style="fill:none;stroke:#000000;stroke-width:0.36000001;stroke-linecap:butt;stroke-linejoin:miter" /><path
       id="path105"
       d="m 116.27233,54.36 -0.36,0.36 c -0.54,0.54 -1.98,-0.72 -1.98,-0.72 l 0.36,-0.18 -0.36,-0.54 c -1.08,-1.26 -0.18,-1.8 -0.18,-1.8 0.9,-0.72 1.8,0.54 1.8,0.54 l 0.36,0.54 0.36,-0.36 c 0.9,1.44 0,2.16 0,2.16 l 0,0 z"
       style="fill:#cabd53;fill-rule:nonzero;stroke:none" /><path
       id="path107"
       d="m 116.27233,54.36 -0.36,0.36 c -0.54,0.54 -1.98,-0.72 -1.98,-0.72 l 0.36,-0.18 -0.36,-0.54 c -1.08,-1.26 -0.18,-1.8 -0.18,-1.8 0.9,-0.72 1.8,0.54 1.8,0.54 l 0.36,0.54 0.36,-0.36 c 0.9,1.44 0,2.16 0,2.16 l 0,0"
       style="fill:none;stroke:#000000;stroke-width:0.36000001;stroke-linecap:butt;stroke-linejoin:miter" /><path
       id="path109"
       d="m 116.27233,66.96 -0.18,0.36 c -0.54,0.72 -2.16,0.18 -2.16,0.18 l 0.18,-0.36 -0.54,-0.36 c -1.44,-0.9 -0.72,-1.62 -0.72,-1.62 0.36,-0.9 1.62,-0.18 1.62,-0.18 l 0.54,0.36 0.36,-0.54 c 1.44,1.08 0.9,2.16 0.9,2.16 l 0,0 z"
       style="fill:#cabd53;fill-rule:nonzero;stroke:none" /><path
       id="path111"
       d="m 116.27233,66.96 -0.18,0.36 c -0.54,0.72 -2.16,0.18 -2.16,0.18 l 0.18,-0.36 -0.54,-0.36 c -1.44,-0.9 -0.72,-1.62 -0.72,-1.62 0.36,-0.9 1.62,-0.18 1.62,-0.18 l 0.54,0.36 0.36,-0.54 c 1.44,1.08 0.9,2.16 0.9,2.16 l 0,0"
       style="fill:none;stroke:#000000;stroke-width:0.36000001;stroke-linecap:butt;stroke-linejoin:miter" /><path
       id="path113"
       d="m 117.35233,76.32 -0.18,0.36 c -0.18,0.9 -1.98,0.9 -1.98,0.9 l 0.18,-0.36 -0.72,-0.18 c -1.62,-0.18 -1.26,-1.26 -1.26,-1.26 0.18,-0.9 1.62,-0.72 1.62,-0.72 l 0.72,0.18 0,-0.54 c 1.8,0.36 1.62,1.62 1.62,1.62 l 0,0 z"
       style="fill:#cabd53;fill-rule:nonzero;stroke:none" /><path
       id="path115"
       d="m 117.35233,76.32 -0.18,0.36 c -0.18,0.9 -1.98,0.9 -1.98,0.9 l 0.18,-0.36 -0.72,-0.18 c -1.62,-0.18 -1.26,-1.26 -1.26,-1.26 0.18,-0.9 1.62,-0.72 1.62,-0.72 l 0.72,0.18 0,-0.54 c 1.8,0.36 1.62,1.62 1.62,1.62 l 0,0"
       style="fill:none;stroke:#000000;stroke-width:0.36000001;stroke-linecap:butt;stroke-linejoin:miter" /><path
       id="path117"
       d="m 174.77233,66.06 0,13.32 c 0.18,-0.54 0.72,-0.54 1.44,-0.72 -0.18,-1.62 1.08,-1.44 1.08,-1.44 -0.36,-1.98 0.9,-3.78 0.9,-3.78 -0.9,-1.98 0.54,-2.34 0.54,-2.34 0.18,-0.72 0.36,-0.9 -0.18,-1.08 0.36,-0.72 -0.18,-1.08 -0.54,-1.08 0.36,-0.9 -1.62,-1.26 -1.62,-0.9 -1.8,-0.36 -1.62,-1.98 -1.62,-1.98 z"
       style="fill:#009b69;fill-rule:evenodd;stroke:none" /><path
       id="path119"
       d="m 174.77233,66.06 0,13.32 c 0.18,-0.54 0.72,-0.54 1.44,-0.72 -0.18,-1.62 1.08,-1.44 1.08,-1.44 -0.36,-1.98 0.9,-3.78 0.9,-3.78 -0.9,-1.98 0.54,-2.34 0.54,-2.34 0.18,-0.72 0.36,-0.9 -0.18,-1.08 0.36,-0.72 -0.18,-1.08 -0.54,-1.08 0.36,-0.9 -1.62,-1.26 -1.62,-0.9 -1.8,-0.36 -1.62,-1.98 -1.62,-1.98 l 0,0"
       style="fill:none;stroke:#000000;stroke-width:0.36000001;stroke-linecap:butt;stroke-linejoin:miter" /><path
       id="path121"
       d="m 174.77233,78.12 0,5.76 c 3.06,0.9 3.78,-1.26 3.78,-1.26 1.8,-0.18 1.44,-1.62 1.44,-1.62 1.08,-0.54 0.54,-1.8 0.54,-1.8 0.9,-1.08 -0.54,-2.16 -0.54,-2.16 0.18,-0.72 0.36,-0.54 0.36,-0.54 0,-0.18 0,-0.72 0,-0.72 l -0.9,0.72 c -0.72,0.36 -0.36,0 -0.36,0 -0.36,-1.26 0.36,-1.8 0.72,-2.16 1.26,0.72 1.8,-0.18 1.8,-0.18 2.16,0.72 2.34,-1.62 2.34,-1.62 2.52,0.18 2.16,-2.16 2.16,-2.16 1.44,-0.36 1.62,-1.8 0.54,-1.98 0,-1.62 -2.16,-0.72 -2.16,0 -1.98,-1.44 -2.16,0.9 -2.16,0.9 -1.44,-0.36 -3.06,1.26 -2.7,2.16 -1.44,0.72 -0.54,2.16 -0.54,2.16 -1.44,1.8 -0.72,3.24 -0.72,3.24 -2.16,0 -2.16,1.26 -2.16,1.26 -0.9,-0.72 -1.44,0 -1.44,0 z"
       style="fill:#009b69;fill-rule:nonzero;stroke:none" /><path
       id="path123"
       d="m 174.77233,78.12 0,5.76 c 3.06,0.9 3.78,-1.26 3.78,-1.26 1.8,-0.18 1.44,-1.62 1.44,-1.62 1.08,-0.54 0.54,-1.8 0.54,-1.8 0.9,-1.08 -0.54,-2.16 -0.54,-2.16 0.18,-0.72 0.36,-0.54 0.36,-0.54 0,-0.18 0,-0.72 0,-0.72 l -0.9,0.72 c -0.72,0.36 -0.36,0 -0.36,0 -0.36,-1.26 0.36,-1.8 0.72,-2.16 1.26,0.72 1.8,-0.18 1.8,-0.18 2.16,0.72 2.34,-1.62 2.34,-1.62 2.52,0.18 2.16,-2.16 2.16,-2.16 1.44,-0.36 1.62,-1.8 0.54,-1.98 0,-1.62 -2.16,-0.72 -2.16,0 -1.98,-1.44 -2.16,0.9 -2.16,0.9 -1.44,-0.36 -3.06,1.26 -2.7,2.16 -1.44,0.72 -0.54,2.16 -0.54,2.16 -1.44,1.8 -0.72,3.24 -0.72,3.24 -2.16,0 -2.16,1.26 -2.16,1.26 -0.9,-0.72 -1.44,0 -1.44,0 l 0,0"
       style="fill:none;stroke:#000000;stroke-width:0.36000001;stroke-linecap:butt;stroke-linejoin:miter" /><path
       id="path125"
       d="m 155.15233,30.96 c -1.8,-0.9 -0.9,-2.16 -0.9,-2.16 -2.16,-0.36 -1.26,-2.52 -1.26,-2.52 -1.8,-1.44 0,-2.88 1.62,-1.62 1.62,-1.44 2.52,1.26 2.52,1.26 2.16,-0.9 2.16,2.16 2.16,2.16 l 1.08,-0.18 c 2.34,0.54 0.72,1.62 0.72,1.62 0.72,0.9 -0.18,1.44 -0.18,1.44 l -5.76,0 z"
       style="fill:#009b69;fill-rule:nonzero;stroke:none" /><path
       id="path127"
       d="m 155.15233,30.96 c -1.8,-0.9 -0.9,-2.16 -0.9,-2.16 -2.16,-0.36 -1.26,-2.52 -1.26,-2.52 -1.8,-1.44 0,-2.88 1.62,-1.62 1.62,-1.44 2.52,1.26 2.52,1.26 2.16,-0.9 2.16,2.16 2.16,2.16 l 1.08,-0.18 c 2.34,0.54 0.72,1.62 0.72,1.62 0.72,0.9 -0.18,1.44 -0.18,1.44 l -5.76,0 0,0"
       style="fill:none;stroke:#000000;stroke-width:0.36000001;stroke-linecap:butt;stroke-linejoin:miter" /><path
       id="path129"
       d="m 163.07233,30.96 -0.18,-0.72 c -0.54,-2.7 2.34,-2.34 2.34,-2.34 l 1.44,0.36 c 1.8,-1.8 3.24,0.36 3.24,0.36 1.98,-1.26 2.88,1.44 3.06,2.34 -0.18,0 -9.9,0 -9.9,0 z"
       style="fill:#009b69;fill-rule:nonzero;stroke:none" /><path
       id="path131"
       d="m 163.07233,30.96 -0.18,-0.72 c -0.54,-2.7 2.34,-2.34 2.34,-2.34 l 1.44,0.36 c 1.8,-1.8 3.24,0.36 3.24,0.36 1.98,-1.26 2.88,1.44 3.06,2.34 -0.18,0 -9.9,0 -9.9,0 l 0,0"
       style="fill:none;stroke:#000000;stroke-width:0.36000001;stroke-linecap:butt;stroke-linejoin:miter" /><polygon
       id="polygon133"
       points="250.02,214.02 250.02,214.02 250.02,214.02 249.84,215.1 249.3,215.1 249.48,213.84 "
       style="fill:#009b69;fill-rule:nonzero;stroke:none"
       transform="translate(-87.667674,-184.14)" /><polyline
       id="polyline135"
       points="250.02,214.02 249.84,215.10 249.30,215.10 249.48,213.84   250.02,214.02 250.02,214.02 "
       style="fill:none;stroke:#000000;stroke-width:0.36000001;stroke-linecap:butt;stroke-linejoin:miter"
       transform="translate(-87.667674,-184.14)" /><path
       id="path137"
       d="m 161.63233,29.88 0.54,0 c 0.9,0.18 1.8,-1.62 1.8,-1.62 l -0.54,0 0.18,-0.72 c 0.36,-1.8 -0.72,-1.8 -0.72,-1.8 -1.08,-0.36 -1.44,1.26 -1.44,1.26 l -0.18,0.72 -0.54,-0.18 c -0.36,1.98 0.9,2.34 0.9,2.34 l 0,0 z"
       style="fill:#cabd53;fill-rule:nonzero;stroke:none" /><path
       id="path139"
       d="m 161.63233,29.88 0.54,0 c 0.9,0.18 1.8,-1.62 1.8,-1.62 l -0.54,0 0.18,-0.72 c 0.36,-1.8 -0.72,-1.8 -0.72,-1.8 -1.08,-0.36 -1.44,1.26 -1.44,1.26 l -0.18,0.72 -0.54,-0.18 c -0.36,1.98 0.9,2.34 0.9,2.34 l 0,0"
       style="fill:none;stroke:#000000;stroke-width:0.36000001;stroke-linecap:butt;stroke-linejoin:miter" /><path
       id="path141"
       d="m 176.93233,42.66 0,0 c -0.18,0 -0.18,-0.18 -0.18,-0.36 -0.36,-2.52 1.62,-1.98 1.62,-1.98 0,-0.72 0.72,-1.26 0.72,-1.26 -0.18,-1.8 1.26,-2.16 1.26,-2.16 1.62,0.36 1.44,1.26 1.08,1.8 1.8,0.18 0.54,2.34 0.54,2.34 0.9,1.44 -0.36,2.52 -0.36,2.52 0.72,1.98 -0.72,2.7 -0.72,2.7 0.36,2.34 -2.16,2.88 -2.16,2.88 0,2.7 0.72,2.7 0.72,2.7 0.18,-0.72 0.72,-0.9 0.9,-1.44 -0.36,-0.54 0,-1.26 0,-1.26 1.44,-0.72 1.26,-2.7 1.26,-2.7 1.26,-0.54 0.9,-2.52 0.72,-2.88 0.54,-1.08 1.26,-0.9 1.44,-0.18 2.34,-1.62 1.8,1.08 1.44,1.44 1.08,1.98 -0.36,2.52 -0.36,2.52 0.36,1.44 -1.08,1.98 -1.08,1.98 0,0 0.18,1.08 -1.08,1.08 -0.36,0.54 -0.54,1.08 -1.8,0.54 -0.9,0.72 -0.9,1.98 -0.9,1.98 0,2.16 0.18,2.52 0.18,2.52 l 1.08,-1.26 c 0.54,0.18 0.54,0.54 0.54,0.54 -0.54,0.54 -1.08,1.08 -1.08,1.08 -0.54,1.98 -0.36,4.86 -0.36,4.86 0.36,2.7 -1.08,2.52 -1.08,2.52 0.72,0.9 -0.36,1.62 -0.36,1.62 -0.36,0.36 -1.08,1.08 -1.08,1.08 -0.36,0.9 0.9,1.08 1.08,1.08 0.36,-1.08 0.36,-1.98 1.8,-3.06 -0.72,-1.26 0.54,-1.98 0.54,-1.98 0,0 -1.08,-1.62 0,-2.7 0.54,-0.54 0,-0.9 0,-0.9 0,0 -0.18,-2.34 1.98,-2.52 -0.18,-1.44 1.44,-1.62 1.44,-1.62 0.54,-1.8 1.8,-1.08 1.8,-0.54 1.8,-0.54 1.98,1.44 1.44,1.8 1.44,1.98 -0.72,3.42 -0.72,3.42 1.26,1.26 -1.08,2.52 -1.08,2.52 0.54,0.9 0,1.8 -1.8,1.98 -0.72,1.44 -2.88,0.9 -2.88,0.9 -2.52,1.98 -1.26,3.24 -1.26,3.24 l 1.08,-0.72 c 0.18,0.18 0.36,0.54 0.36,0.54 -1.44,1.08 -1.26,1.98 -1.26,1.98 -0.18,-0.18 0.36,0.18 0.36,0.36 -0.54,0.18 -0.72,0.72 -0.72,0.72 -0.9,-3.42 -1.8,-2.34 -2.7,-3.6 -0.72,0 -1.98,-0.36 -2.16,-1.44 -0.18,-0.36 -0.36,-0.18 -0.36,-0.18 l 0,-9.18 c 2.52,0 2.34,1.8 2.34,1.8 1.62,0 1.26,1.08 1.26,1.08 1.62,0 1.26,1.98 1.26,1.98 0.36,-0.72 0,-3.06 0,-3.06 -1.08,0.18 -1.62,-1.08 -1.62,-1.08 -1.62,-0.36 -1.98,-2.16 -1.98,-2.16 -0.72,0.36 -1.26,-0.36 -1.26,-0.36 l 0,-21.06 c 2.88,0.18 2.7,2.7 2.7,2.7 1.44,0.72 1.44,1.44 1.44,1.44 -0.54,0.18 -0.72,0.54 -0.72,1.44 -0.54,0.36 -0.54,0.9 -0.54,0.9 -2.52,0.9 -0.72,3.06 -0.72,3.06 l 0,0 z m -0.72,3.6 -1.08,1.26 c 2.34,1.26 2.52,4.32 2.52,4.32 1.08,0.54 0.9,0.18 0.9,0.18 -0.72,-1.26 -0.54,-3.06 -0.54,-3.06 -1.62,-0.54 -1.8,-1.8 -1.8,-2.7 z"
       style="fill:#009b69;fill-rule:evenodd;stroke:none" /><path
       id="path143"
       d="m 176.93233,42.66 0,0 c -0.18,0 -0.18,-0.18 -0.18,-0.36 -0.36,-2.52 1.62,-1.98 1.62,-1.98 0,-0.72 0.72,-1.26 0.72,-1.26 -0.18,-1.8 1.26,-2.16 1.26,-2.16 1.62,0.36 1.44,1.26 1.08,1.8 1.8,0.18 0.54,2.34 0.54,2.34 0.9,1.44 -0.36,2.52 -0.36,2.52 0.72,1.98 -0.72,2.7 -0.72,2.7 0.36,2.34 -2.16,2.88 -2.16,2.88 0,2.7 0.72,2.7 0.72,2.7 0.18,-0.72 0.72,-0.9 0.9,-1.44 -0.36,-0.54 0,-1.26 0,-1.26 1.44,-0.72 1.26,-2.7 1.26,-2.7 1.26,-0.54 0.9,-2.52 0.72,-2.88 0.54,-1.08 1.26,-0.9 1.44,-0.18 2.34,-1.62 1.8,1.08 1.44,1.44 1.08,1.98 -0.36,2.52 -0.36,2.52 0.36,1.44 -1.08,1.98 -1.08,1.98 0,0 0.18,1.08 -1.08,1.08 -0.36,0.54 -0.54,1.08 -1.8,0.54 -0.9,0.72 -0.9,1.98 -0.9,1.98 0,2.16 0.18,2.52 0.18,2.52 l 1.08,-1.26 c 0.54,0.18 0.54,0.54 0.54,0.54 -0.54,0.54 -1.08,1.08 -1.08,1.08 -0.54,1.98 -0.36,4.86 -0.36,4.86 0.36,2.7 -1.08,2.52 -1.08,2.52 0.72,0.9 -0.36,1.62 -0.36,1.62 -0.36,0.36 -1.08,1.08 -1.08,1.08 -0.36,0.9 0.9,1.08 1.08,1.08 0.36,-1.08 0.36,-1.98 1.8,-3.06 -0.72,-1.26 0.54,-1.98 0.54,-1.98 0,0 -1.08,-1.62 0,-2.7 0.54,-0.54 0,-0.9 0,-0.9 0,0 -0.18,-2.34 1.98,-2.52 -0.18,-1.44 1.44,-1.62 1.44,-1.62 0.54,-1.8 1.8,-1.08 1.8,-0.54 1.8,-0.54 1.98,1.44 1.44,1.8 1.44,1.98 -0.72,3.42 -0.72,3.42 1.26,1.26 -1.08,2.52 -1.08,2.52 0.54,0.9 0,1.8 -1.8,1.98 -0.72,1.44 -2.88,0.9 -2.88,0.9 -2.52,1.98 -1.26,3.24 -1.26,3.24 l 1.08,-0.72 c 0.18,0.18 0.36,0.54 0.36,0.54 -1.44,1.08 -1.26,1.98 -1.26,1.98 -0.18,-0.18 0.36,0.18 0.36,0.36 -0.54,0.18 -0.72,0.72 -0.72,0.72 -0.9,-3.42 -1.8,-2.34 -2.7,-3.6 -0.72,0 -1.98,-0.36 -2.16,-1.44 -0.18,-0.36 -0.36,-0.18 -0.36,-0.18 l 0,-9.18 c 2.52,0 2.34,1.8 2.34,1.8 1.62,0 1.26,1.08 1.26,1.08 1.62,0 1.26,1.98 1.26,1.98 0.36,-0.72 0,-3.06 0,-3.06 -1.08,0.18 -1.62,-1.08 -1.62,-1.08 -1.62,-0.36 -1.98,-2.16 -1.98,-2.16 -0.72,0.36 -1.26,-0.36 -1.26,-0.36 l 0,-21.06 c 2.88,0.18 2.7,2.7 2.7,2.7 1.44,0.72 1.44,1.44 1.44,1.44 -0.54,0.18 -0.72,0.54 -0.72,1.44 -0.54,0.36 -0.54,0.9 -0.54,0.9 -2.52,0.9 -0.72,3.06 -0.72,3.06 l 0,0 m -0.72,3.6 -1.08,1.26 c 2.34,1.26 2.52,4.32 2.52,4.32 1.08,0.54 0.9,0.18 0.9,0.18 -0.72,-1.26 -0.54,-3.06 -0.54,-3.06 -1.62,-0.54 -1.8,-1.8 -1.8,-2.7 l 0,0"
       style="fill:none;stroke:#000000;stroke-width:0.36000001;stroke-linecap:butt;stroke-linejoin:miter" /><path
       id="path145"
       d="m 181.25233,54.36 0.36,0.36 c 0.72,0.54 2.16,-0.72 2.16,-0.72 l -0.36,-0.18 0.36,-0.54 c 0.9,-1.26 0,-1.8 0,-1.8 -0.72,-0.72 -1.62,0.54 -1.62,0.54 l -0.36,0.54 -0.54,-0.36 c -0.9,1.44 0,2.16 0,2.16 l 0,0 z"
       style="fill:#cabd53;fill-rule:nonzero;stroke:none" /><path
       id="path147"
       d="m 181.25233,54.36 0.36,0.36 c 0.72,0.54 2.16,-0.72 2.16,-0.72 l -0.36,-0.18 0.36,-0.54 c 0.9,-1.26 0,-1.8 0,-1.8 -0.72,-0.72 -1.62,0.54 -1.62,0.54 l -0.36,0.54 -0.54,-0.36 c -0.9,1.44 0,2.16 0,2.16 l 0,0"
       style="fill:none;stroke:#000000;stroke-width:0.36000001;stroke-linecap:butt;stroke-linejoin:miter" /><path
       id="path149"
       d="m 181.43233,66.96 0.18,0.36 c 0.36,0.72 2.16,0.18 2.16,0.18 l -0.18,-0.36 0.54,-0.36 c 1.26,-0.9 0.72,-1.62 0.72,-1.62 -0.54,-0.9 -1.62,-0.18 -1.62,-0.18 l -0.72,0.36 -0.18,-0.54 c -1.44,1.08 -0.9,2.16 -0.9,2.16 l 0,0 z"
       style="fill:#cabd53;fill-rule:nonzero;stroke:none" /><path
       id="path151"
       d="m 181.43233,66.96 0.18,0.36 c 0.36,0.72 2.16,0.18 2.16,0.18 l -0.18,-0.36 0.54,-0.36 c 1.26,-0.9 0.72,-1.62 0.72,-1.62 -0.54,-0.9 -1.62,-0.18 -1.62,-0.18 l -0.72,0.36 -0.18,-0.54 c -1.44,1.08 -0.9,2.16 -0.9,2.16 l 0,0"
       style="fill:none;stroke:#000000;stroke-width:0.36000001;stroke-linecap:butt;stroke-linejoin:miter" /><path
       id="path153"
       d="m 180.35233,76.32 0,0.36 c 0.18,0.9 1.98,0.9 1.98,0.9 l 0,-0.36 0.72,-0.18 c 1.44,-0.18 1.08,-1.26 1.08,-1.26 0,-0.9 -1.44,-0.72 -1.44,-0.72 l -0.72,0.18 0,-0.54 c -1.8,0.36 -1.62,1.62 -1.62,1.62 l 0,0 z"
       style="fill:#cabd53;fill-rule:nonzero;stroke:none" /><path
       id="path155"
       d="m 180.35233,76.32 0,0.36 c 0.18,0.9 1.98,0.9 1.98,0.9 l 0,-0.36 0.72,-0.18 c 1.44,-0.18 1.08,-1.26 1.08,-1.26 0,-0.9 -1.44,-0.72 -1.44,-0.72 l -0.72,0.18 0,-0.54 c -1.8,0.36 -1.62,1.62 -1.62,1.62 l 0,0"
       style="fill:none;stroke:#000000;stroke-width:0.36000001;stroke-linecap:butt;stroke-linejoin:miter" /><path
       id="path157"
       d="m 141.65233,93.42 c -0.36,0.54 -1.44,1.44 -1.08,2.34 0.18,0.54 1.08,0.9 1.62,0.9 0.9,0 1.98,-0.9 2.52,-1.98 0.72,0.36 1.26,0.72 1.26,0.72 -1.44,2.52 -3.78,2.52 -3.78,2.52 -2.34,0.18 -2.7,-1.8 -2.7,-1.8 -1.26,1.44 -3.24,1.44 -3.24,1.44 -2.34,-0.18 -1.98,-2.16 -1.98,-2.16 -1.44,0.72 -2.52,0.18 -2.52,0.18 -1.08,-0.9 -2.52,-0.72 -2.52,-0.72 -1.44,0 -2.7,0.54 -2.7,0.54 -0.18,-0.54 0,-1.08 0,-1.08 1.62,-0.54 3.06,-0.54 3.06,-0.54 0.9,0 1.98,0.18 2.52,0.54 0.9,0.36 1.8,-0.18 1.8,-0.18 0.36,-0.36 1.44,-1.8 1.44,-1.8 0.18,0 0.72,0 1.44,0.18 -0.36,0.72 -1.44,1.44 -1.44,2.34 -0.18,0.54 0.18,1.08 0.54,1.26 0.72,0.36 1.62,0.18 2.16,-0.36 0.54,-0.36 1.26,-0.72 1.98,-2.52 0.36,0 1.26,0.18 1.62,0.18 z"
       style="fill:#009b69;fill-rule:nonzero;stroke:none" /><path
       id="path159"
       d="m 156.05233,93.42 c 0.36,0.54 1.26,1.44 0.9,2.34 -0.18,0.54 -0.9,0.9 -1.44,0.9 -1.08,0 -2.16,-0.9 -2.7,-1.98 -0.72,0.36 -1.26,0.72 -1.26,0.72 1.44,2.52 3.78,2.52 3.78,2.52 2.16,0.18 2.7,-1.8 2.7,-1.8 1.44,1.44 3.24,1.44 3.24,1.44 2.52,-0.18 2.16,-2.16 2.16,-2.16 1.26,0.72 2.34,0.18 2.34,0.18 1.26,-0.9 2.7,-0.72 2.7,-0.72 1.26,0 2.52,0.54 2.52,0.54 0.36,-0.54 0,-1.08 0,-1.08 -1.62,-0.54 -3.06,-0.54 -3.06,-0.54 -0.72,0 -1.8,0.18 -2.52,0.54 -0.9,0.36 -1.62,-0.18 -1.62,-0.18 -0.54,-0.36 -1.62,-1.8 -1.62,-1.8 0,0 -0.72,0 -1.44,0.18 0.54,0.72 1.44,1.44 1.62,2.34 0,0.54 -0.18,1.08 -0.54,1.26 -0.72,0.36 -1.8,0.18 -2.34,-0.36 -0.54,-0.36 -1.26,-0.72 -1.8,-2.52 -0.54,0 -1.26,0.18 -1.62,0.18 z"
       style="fill:#009b69;fill-rule:nonzero;stroke:none" /><path
       id="path161"
       d="m 122.75233,30.78 0,53.64 c 0.54,3.96 2.52,6.12 4.5,7.02 1.62,1.08 4.86,1.08 4.86,1.08 3.24,0 5.76,0.54 7.92,0.9 6.66,1.26 8.82,5.04 8.82,5.04 0,0 2.16,-3.78 8.64,-5.04 2.16,-0.36 4.86,-0.9 8.1,-0.9 0,0 3.06,0 4.86,-1.08 1.8,-0.9 3.78,-3.06 4.5,-7.02 l 0,-53.64 -52.2,0 z"
       style="fill:#000000;fill-rule:nonzero;stroke:none" /><path
       id="path163"
       d="m 123.83233,60.48 24.3,0 0,35.46 c -4.68,-4.86 -17.82,-4.68 -17.82,-4.68 -5.76,-0.9 -6.48,-6.84 -6.48,-6.84 l 0,-23.94 z"
       style="fill:#cabd53;fill-rule:nonzero;stroke:none" /><path
       id="path165"
       d="m 123.83233,80.82 24.3,0 0,15.12 c -4.68,-4.86 -17.82,-4.68 -17.82,-4.68 -5.76,-0.9 -6.48,-6.84 -6.48,-6.84 l 0,-3.6 z"
       style="fill:#fefefe;fill-rule:nonzero;stroke:none" /><polygon
       id="polygon167"
       points="237.06,216.18 261.36,216.18 261.36,243.36 237.06,243.36 237.06,216.18 "
       style="fill:#cabd53;fill-rule:nonzero;stroke:none"
       transform="translate(-87.667674,-184.14)" /><polygon
       id="polygon169"
       points="241.02,220.14 257.4,220.14 257.4,239.4 241.02,239.4 241.02,220.14 "
       style="fill:#fefefe;fill-rule:nonzero;stroke:none"
       transform="translate(-87.667674,-184.14)" /><polygon
       id="polygon171"
       points="241.02,220.14 257.4,220.14 257.4,239.4 241.02,239.4 241.02,220.14 "
       style="fill:#a09286;fill-rule:nonzero;stroke:none"
       transform="translate(-87.667674,-184.14)" /><polygon
       id="polygon173"
       points="242.46,227.34 255.96,227.34 255.96,230.22 242.46,230.22 242.46,227.34 "
       style="fill:#fefefe;fill-rule:nonzero;stroke:none"
       transform="translate(-87.667674,-184.14)" /><polygon
       id="polygon175"
       points="247.68,222.3 250.74,222.3 250.74,232.74 247.68,232.74 247.68,222.3 "
       style="fill:#fefefe;fill-rule:nonzero;stroke:none"
       transform="translate(-87.667674,-184.14)" /><path
       id="path177"
       d="m 158.75233,48.96 5.76,0 c 1.8,-0.36 1.44,-2.34 1.44,-2.34 2.16,-1.98 0,-3.78 0,-3.78 0.36,-2.88 -2.7,-2.52 -2.7,-2.52 -1.8,-2.16 -3.6,0 -3.6,0 -2.88,0 -2.52,2.52 -2.52,2.52 -2.16,2.16 0,3.6 0,3.6 0,2.52 1.62,2.52 1.62,2.52 z"
       style="fill:#009b69;fill-rule:nonzero;stroke:none" /><polygon
       id="polygon179"
       points="241.02,236.34 257.4,236.34 257.4,239.4 241.02,239.4 241.02,236.34 "
       style="fill:#aa5515;fill-rule:nonzero;stroke:none"
       transform="translate(-87.667674,-184.14)" /><path
       id="path181"
       d="m 159.65233,52.2 3.78,0 c -0.72,-0.36 -0.72,-0.9 -0.72,-0.9 l 0,-1.8 c 0,-0.36 0.36,-0.54 0.36,-0.54 l -3.24,0 c 0.36,0.18 0.54,0.54 0.54,0.54 l 0,1.8 c 0,0.54 -0.72,0.9 -0.72,0.9 z"
       style="fill:#aa5515;fill-rule:nonzero;stroke:none" /><path
       id="path183"
       d="m 128.15233,79.02 0,-2.88 c -2.34,-0.72 -2.7,-2.52 -2.7,-2.52 -1.08,-4.5 1.8,-8.46 1.8,-8.46 1.8,-2.88 3.6,0 3.6,0 2.88,3.96 1.8,8.46 1.8,8.46 -0.36,1.8 -2.52,2.52 -2.52,2.52 l 0,2.88 -1.98,0 z"
       style="fill:#009b69;fill-rule:nonzero;stroke:none" /><path
       id="path185"
       d="m 135.17233,79.02 0,-2.88 c -2.16,-0.72 -2.52,-2.52 -2.52,-2.52 -1.08,-4.5 1.8,-8.46 1.8,-8.46 1.8,-2.88 3.6,0 3.6,0 2.88,3.96 1.8,8.46 1.8,8.46 -0.36,1.8 -2.52,2.52 -2.52,2.52 l 0,2.88 -2.16,0 z"
       style="fill:#009b69;fill-rule:nonzero;stroke:none" /><path
       id="path187"
       d="m 142.19233,79.02 0,-2.88 c -2.16,-0.72 -2.52,-2.52 -2.52,-2.52 -1.08,-4.5 1.8,-8.46 1.8,-8.46 1.8,-2.88 3.6,0 3.6,0 2.88,3.96 1.8,8.46 1.8,8.46 -0.54,1.8 -2.52,2.52 -2.52,2.52 l 0,2.88 -2.16,0 z"
       style="fill:#009b69;fill-rule:nonzero;stroke:none" /><path
       id="path189"
       d="m 123.83233,80.82 24.3,0 0,15.12 c -4.68,-4.86 -17.82,-4.68 -17.82,-4.68 -5.76,-0.9 -6.48,-6.84 -6.48,-6.84 l 0,-3.6 z"
       style="fill:#a09286;fill-rule:nonzero;stroke:none" /><g
       id="g191"
       clip-path="url(#ClipId1)"
       transform="translate(-87.667674,-184.14)"> <clipPath
   id="ClipId1">
<path
   d="m 211.5,264.96 24.12,0.18 0,14.76 -1.08,-1.08 -2.88,-1.44 -3.42,-1.08 -2.7,-0.54 -7.2,-0.54 -0.36,-0.18 -0.54,0.18 -1.98,-0.72 -1.44,-1.08 -0.72,-0.72 -0.18,-0.36 -0.54,-0.54 -0.18,-0.72 -0.36,-0.72 -0.36,-0.9 -0.18,-0.72 0,-3.6 0,-0.18 z"
   id="path194" />
</clipPath>
<path
   style="fill:#0f477b;fill-rule:nonzero;stroke:none"
   d="m 211.32,271.44 1.26,0.54 c 0.9,0.72 2.16,-0.36 2.16,-0.36 1.98,-1.26 4.14,0 4.14,0 1.44,1.08 2.7,0.18 2.7,0.18 2.16,-1.44 4.5,-0.18 4.5,-0.18 1.44,1.26 2.88,0 2.88,0 2.16,-1.26 4.32,0 4.32,0 1.62,1.26 2.7,-0.36 2.7,-0.36 l 0,-3.06 c 0,0 -1.08,1.62 -2.7,0.36 0,0 -2.16,-1.26 -4.32,0 0,0 -1.44,1.44 -2.88,0 0,0 -2.34,-1.08 -4.5,0.18 0,0 -1.26,1.08 -2.7,-0.18 0,0 -2.16,-1.08 -4.14,0.18 0,0 -1.26,0.9 -2.16,0.36 l -1.26,-0.72 0,3.06 z"
   id="path196" />
<path
   style="fill:#0f477b;fill-rule:nonzero;stroke:none"
   d="m 211.5,276.84 1.08,0.54 c 0.9,0.72 2.16,-0.36 2.16,-0.36 1.98,-1.26 4.14,0 4.14,0 1.44,1.08 2.7,0 2.7,0 2.16,-1.26 4.5,0 4.5,0 1.44,1.26 2.88,0 2.88,0 2.16,-1.26 4.32,0 4.32,0 1.62,1.08 2.7,-0.54 2.7,-0.54 l 0,-2.88 c 0,0 -1.08,1.62 -2.7,0.36 0,0 -2.16,-1.26 -4.32,0 0,0 -1.44,1.26 -2.88,0 0,0 -2.34,-1.26 -4.5,0.18 0,0 -1.26,1.08 -2.7,-0.18 0,0 -2.16,-1.08 -4.14,0.18 0,0 -1.26,0.9 -2.16,0.36 l -1.08,-0.54 0,2.88 z"
   id="path198" />
</g><path
       id="path205"
       d="m 123.83233,82.08 1.08,0.36 c 0.9,0.72 2.16,-0.18 2.16,-0.18 1.98,-1.26 4.14,-0.18 4.14,-0.18 1.44,1.26 2.7,0.18 2.7,0.18 2.16,-1.44 4.5,-0.18 4.5,-0.18 1.44,1.26 2.88,0 2.88,0 2.16,-1.26 4.32,0 4.32,0 1.62,1.26 2.52,-0.36 2.52,-0.36 l 0,-3.06 c 0,0 -0.9,1.62 -2.52,0.36 0,0 -2.16,-1.26 -4.32,0 0,0 -1.44,1.44 -2.88,0 0,0 -2.34,-1.08 -4.5,0.18 0,0 -1.26,1.08 -2.7,0 0,0 -2.16,-1.26 -4.14,0 0,0 -1.26,0.9 -2.16,0.36 l -1.08,-0.54 0,3.06 z"
       style="fill:#0f477b;fill-rule:nonzero;stroke:none" /><path
       id="path207"
       d="m 173.51233,60.48 -24.12,0 0,35.46 c 4.68,-4.86 18,-4.68 18,-4.68 5.58,-0.9 6.12,-6.84 6.12,-6.84 l 0,-23.94 z"
       style="fill:#ec192d;fill-rule:nonzero;stroke:none" /><polygon
       id="polygon209"
       points="211.5,216 211.5,243.36 235.8,243.36 235.8,216 211.5,216 "
       style="fill:#cabd53;fill-rule:nonzero;stroke:none"
       transform="translate(-87.667674,-184.14)" /><polygon
       id="polygon211"
       points="222.84,225.72 223.92,224.82 223.92,224.82 215.1,217.44 214.56,217.08 214.74,217.62 "
       style="fill:#4f98d7;fill-rule:evenodd;stroke:none"
       transform="translate(-87.667674,-184.14)" /><polygon
       id="polygon213"
       points="224.82,223.74 221.94,226.8 222.3,227.16 225.18,223.92 224.82,223.74 "
       style="fill:#4f98d7;fill-rule:nonzero;stroke:none"
       transform="translate(-87.667674,-184.14)" /><path
       id="path215"
       d="m 134.27233,52.2 1.98,2.34 0.54,-0.36 0.18,0 1.26,-1.26 c 0.18,-0.18 0.18,-0.36 0.18,-0.36 l 0,-1.26 -0.18,-0.18 -0.54,-4.14 0.54,0 -0.36,-1.8 c 0,-0.54 0.36,-0.54 0.36,-0.54 0.72,0.18 0.9,-0.36 0.9,-0.36 l 0,-0.18 c -0.18,-0.36 0,-0.54 0,-0.54 l 0.36,-0.54 c 0.18,-0.54 -0.54,-0.54 -0.54,-0.54 0,-0.54 -0.54,-0.54 -0.54,-0.54 0,-0.36 -0.54,-0.36 -0.54,-0.36 -0.36,-0.72 -1.08,-0.36 -1.08,-0.36 -0.54,0 -0.54,0.36 -0.54,0.36 l -0.9,1.08 -0.18,4.14 0.18,0.18 -0.18,2.7 -0.18,0.18 -0.36,1.62 0.18,0.18 -0.54,0.54 z"
       style="fill:#4f98d7;fill-rule:nonzero;stroke:none" /><path
       id="path217"
       d="m 142.73233,43.38 -1.26,0 0,0.9 0.9,0 c 0.72,0.36 0.54,1.08 0.54,1.08 -0.54,0.9 -1.44,0 -1.44,0 l -1.26,-1.62 -0.18,1.08 -0.9,0 2.16,2.52 -1.62,1.44 1.08,0 0,1.08 1.44,-1.26 0.9,0.9 -1.44,2.34 c -0.36,0.54 0.36,0.9 0.36,0.9 l -1.26,2.52 0.72,-0.18 0.54,0.9 1.62,-2.88 0,-0.54 0.72,-1.08 0,1.62 c 0.36,0.72 1.08,0.54 1.08,0.54 l 0,2.7 0.72,-0.54 0.9,0.54 0,-3.24 -0.54,0 0,-6.84 0.9,-0.72 -0.9,-0.72 -0.54,0.54 0,3.96 -1.08,-1.44 0.54,-1.62 -0.54,0 0.72,-1.8 -0.72,0 0.72,-1.62 -2.88,0 0,0.54 z"
       style="fill:#ec192d;fill-rule:evenodd;stroke:none" /><polygon
       id="polygon219"
       points="221.4,232.38 221.4,235.98 213.48,235.98 213.48,232.38 214.02,231.66 214.02,229.14 213.3,228.6 213.3,226.08 213.84,226.08 213.84,226.62 214.56,226.62 214.56,226.08 215.28,226.08 215.28,227.7 216.18,227.7 216.18,224.82 217.08,224.82 217.08,225.54 217.8,225.54 217.8,224.82 218.7,224.82 218.7,227.7 219.6,227.7 219.6,227.7 219.6,226.08 220.14,226.08 220.14,226.62 220.86,226.62 220.86,226.08 221.58,226.08 221.58,228.6 220.86,229.14 220.86,231.66 "
       style="fill:#aa5515;fill-rule:evenodd;stroke:none"
       transform="translate(-87.667674,-184.14)" /><polygon
       id="polygon221"
       points="215.82,229.68 216.72,229.68 216.72,230.94 215.82,230.94 215.82,229.68 "
       style="fill:#4f98d7;fill-rule:nonzero;stroke:none"
       transform="translate(-87.667674,-184.14)" /><polygon
       id="polygon223"
       points="218.16,229.68 219.06,229.68 219.06,230.94 218.16,230.94 218.16,229.68 "
       style="fill:#4f98d7;fill-rule:nonzero;stroke:none"
       transform="translate(-87.667674,-184.14)" /><polygon
       id="polygon225"
       points="237.42,219.06 238.32,217.98 237.42,217.08 237.42,217.08 237.96,216.54 238.86,217.44 239.94,216.54 240.48,217.08 239.58,217.98 240.48,219.06 239.94,219.6 238.86,218.7 237.96,219.6 "
       style="fill:#ec192d;fill-rule:nonzero;stroke:none"
       transform="translate(-87.667674,-184.14)" /><polygon
       id="polygon227"
       points="237.42,230.76 238.32,229.68 237.42,228.78 237.42,228.78 237.96,228.24 238.86,229.14 239.94,228.24 240.48,228.78 239.58,229.68 240.48,230.76 239.94,231.3 238.86,230.4 237.96,231.3 "
       style="fill:#ec192d;fill-rule:nonzero;stroke:none"
       transform="translate(-87.667674,-184.14)" /><polygon
       id="polygon229"
       points="237.42,242.46 238.32,241.38 237.42,240.48 237.42,240.48 237.96,239.76 238.86,240.84 239.94,239.76 240.48,240.48 239.58,241.38 240.48,242.46 239.94,243 238.86,242.1 237.96,243 "
       style="fill:#ec192d;fill-rule:nonzero;stroke:none"
       transform="translate(-87.667674,-184.14)" /><polygon
       id="polygon231"
       points="257.94,219.06 258.84,217.98 257.94,217.08 257.94,217.08 258.48,216.54 259.38,217.44 260.46,216.54 261,217.08 260.1,217.98 261,219.06 260.46,219.6 259.38,218.7 258.48,219.6 "
       style="fill:#ec192d;fill-rule:nonzero;stroke:none"
       transform="translate(-87.667674,-184.14)" /><polygon
       id="polygon233"
       points="257.94,230.76 258.84,229.68 257.94,228.78 257.94,228.78 258.48,228.24 259.38,229.14 260.46,228.24 261,228.78 260.1,229.68 261,230.76 260.46,231.3 259.38,230.4 258.48,231.3 "
       style="fill:#ec192d;fill-rule:nonzero;stroke:none"
       transform="translate(-87.667674,-184.14)" /><polygon
       id="polygon235"
       points="257.94,242.46 258.84,241.38 257.94,240.48 257.94,240.48 258.48,239.76 259.38,240.84 260.46,239.76 261,240.48 260.1,241.38 261,242.46 260.46,243 259.38,242.1 258.48,243 "
       style="fill:#ec192d;fill-rule:nonzero;stroke:none"
       transform="translate(-87.667674,-184.14)" /><polygon
       id="polygon237"
       points="247.68,219.06 248.58,217.98 247.68,217.08 247.68,217.08 248.22,216.54 249.12,217.44 250.2,216.54 250.74,217.08 249.84,217.98 250.74,219.06 250.2,219.6 249.12,218.7 248.22,219.6 "
       style="fill:#ec192d;fill-rule:nonzero;stroke:none"
       transform="translate(-87.667674,-184.14)" /><polygon
       id="polygon239"
       points="247.68,242.46 248.58,241.38 247.68,240.48 247.68,240.48 248.22,239.76 249.12,240.84 250.2,239.76 250.74,240.48 249.84,241.38 250.74,242.46 250.2,243 249.12,242.1 248.22,243 "
       style="fill:#ec192d;fill-rule:nonzero;stroke:none"
       transform="translate(-87.667674,-184.14)" /><polyline
       id="polyline241"
       points="241.02,220.14 257.40,220.14 257.40,239.40 241.02,239.40   241.02,220.14 "
       style="fill:none;stroke:#000000;stroke-width:0.36000001;stroke-linecap:butt;stroke-linejoin:miter"
       transform="translate(-87.667674,-184.14)" /><path
       id="path243"
       d="m 128.87233,52.02 0,-1.8 c 0,-0.54 0.54,-0.9 0.9,-0.9 0.54,0 0.9,0.36 0.9,0.9 l 0,1.8 -1.8,0 z"
       style="fill:#4f98d7;fill-rule:nonzero;stroke:none" /><polygon
       id="polygon245"
       points="213.3,235.98 211.5,237.6 211.5,237.6 211.5,239.04 225.18,239.94 221.58,235.98 "
       style="fill:#686868;fill-rule:nonzero;stroke:none"
       transform="translate(-87.667674,-184.14)" /><polygon
       id="polygon247"
       points="213.3,235.98 211.5,237.6 211.5,237.6 211.5,239.04 225.18,239.94 221.58,235.98 "
       style="fill:#fefefe;fill-rule:nonzero;stroke:none"
       transform="translate(-87.667674,-184.14)" /><polygon
       id="polygon249"
       points="213.3,235.98 211.5,237.6 211.5,237.6 211.5,239.04 225.18,239.94 221.58,235.98 "
       style="fill:#686868;fill-rule:nonzero;stroke:none"
       transform="translate(-87.667674,-184.14)" /><polygon
       id="polygon251"
       points="235.8,243.36 235.8,240.66 211.5,238.86 211.5,243.36 235.8,243.36 "
       style="fill:#009b69;fill-rule:nonzero;stroke:none"
       transform="translate(-87.667674,-184.14)" /></g><g
     transform="translate(-87.667674,-184.14)"
     clip-path="url(#ClipId3)"
     id="g513"> <clipPath
   id="ClipId3">
<path
   id="path516"
   d="m -38.88,-1.98 177.12,0 0,35.1 -177.12,0 z" />
</clipPath>
</g><g
     transform="translate(-87.667674,-184.14)"
     clip-path="url(#ClipId5)"
     id="g529"> <clipPath
   id="ClipId5">
<path
   id="path532"
   d="m -38.88,-1.98 177.12,0 0,35.1 -177.12,0 z" />
</clipPath>
</g><g
     transform="translate(-87.667674,-184.14)"
     clip-path="url(#ClipId6)"
     id="g534"> <clipPath
   id="ClipId6">
<path
   id="path537"
   d="m -45.72,-6.84 594.9,0 0,841.86 -594.9,0 z" />
</clipPath>
</g></g>
</svg>